<svg id="visual" viewBox="0 0 1440 128" width="1440" height="128" xmlns="http://www.w3.org/2000/svg" xmlns:xlink="http://www.w3.org/1999/xlink" version="1.1"><path d="M0 87L26.7 86.5C53.3 86 106.7 85 160 76.7C213.3 68.3 266.7 52.7 320 52.8C373.3 53 426.7 69 480 78.2C533.3 87.3 586.7 89.7 640 83.7C693.3 77.7 746.7 63.3 800 61C853.3 58.7 906.7 68.3 960 75.7C1013.3 83 1066.7 88 1120 87.3C1173.3 86.7 1226.7 80.3 1280 70.3C1333.3 60.3 1386.7 46.7 1413.3 39.8L1440 33L1440 129L1413.3 129C1386.7 129 1333.3 129 1280 129C1226.7 129 1173.3 129 1120 129C1066.7 129 1013.3 129 960 129C906.7 129 853.3 129 800 129C746.7 129 693.3 129 640 129C586.7 129 533.3 129 480 129C426.7 129 373.3 129 320 129C266.7 129 213.3 129 160 129C106.7 129 53.3 129 26.7 129L0 129Z" fill="#D4EE26" stroke-linecap="round" stroke-linejoin="miter"></path></svg>